<svg xmlns="http://www.w3.org/2000/svg" xmlns:xlink="http://www.w3.org/1999/xlink" viewBox="0 0 1742.8 715.26"><defs><style>.cls-1{font-size:290.72px;font-family:OpenSans-ExtraBold, Open Sans;font-weight:800;}.cls-1,.cls-3,.cls-6{fill:#243453;}.cls-2{font-size:168.86px;fill:#327ec0;font-family:OpenSans-Light, Open Sans;font-weight:300;letter-spacing:0.34em;}.cls-4{fill:url(#linear-gradient);}.cls-5{fill:#fff;}.cls-6{font-size:30px;font-family:OpenSans-Bold, Open Sans;font-weight:700;letter-spacing:0.08em;}</style><linearGradient id="linear-gradient" x1="1096.63" y1="406.64" x2="1742.8" y2="406.64" gradientUnits="userSpaceOnUse"><stop offset="0" stop-color="#2275b5"/><stop offset="0.5" stop-color="#205b9d"/><stop offset="1" stop-color="#1d3e81"/></linearGradient></defs><g id="Calque_2" data-name="Calque 2"><g id="Calque_1-2" data-name="Calque 1"><text class="cls-1" transform="translate(5.95 441.68)">SHIELD</text><text class="cls-2" transform="translate(0 640.83)">BUSINESS</text><path class="cls-3" d="M1593.72,341.49c-8.59,0-17.75-.22-27.24-.66-121.33-10.47-218.56-29.86-289-57.64-48.55-19.15-84.53-42.38-107-69.08-.07-23.46.17-49.18.46-78.76v-.11c.19-20.39.39-41.44.52-64.78,4-1.69,9.1-4.33,16.52-8.2C1223.72,43.62,1307.26,0,1416.74,0c3.46,0,7,0,10.46.13,39,1,78.9,8.18,133.41,24.06,86.05,25.07,114.66,39.4,123.18,44.58-.13,45.61-.12,91.8-.12,136.51q0,36.57,0,73.14v.46l0,.46a214,214,0,0,1-2.89,48.57C1667.55,334.48,1642.08,341.49,1593.72,341.49Z"/><path class="cls-4" d="M1737.46,386.57c-12.42,26.59-41.36,35-68.35,42.72-51,87.81-156.44,144.42-236.33,209.35-5.38,4.2-8.9,4-14.27-.1C1205,481.8,1155.09,442.59,1152.74,322.13c-15-12.42-26.5-25.82-38.33-44.29-11.63-18.29-34.51-82.34,2.25-102.87,6.06-2.83,14-7.14,12.52,2.84-4.11,76.36,70.69,133.86,211.3,170.52,1.07.3,2.25.59,3.42.88,4.4,1.18,9,2.25,13.59,3.43,1.18.19,2.25.48,3.42.78,4.21,1,8.51,1.95,12.81,2.93,1.18.2,2.25.49,3.43.78,6.25,1.27,12.51,2.64,19,3.91,1.18.2,2.35.49,3.52.69,7.92,1.56,16,3.13,24.35,4.6l3.52.58c6.26,1.08,12.52,2.15,19,3.23,1.17.1,2.25.29,3.42.49,4.21.68,8.51,1.27,12.81,1.86,1.18.19,2.25.39,3.42.48,4.5.79,9,1.37,13.6,2,1.17.19,2.24.39,3.42.49q38.28,5.13,80.18,9c73.62,3.43,111.76-6.35,131-19.16,28.45-19.07,15.65-44.88,15.65-44.88a14.7,14.7,0,0,1-.1-1.66C1716.63,295.83,1757.11,354.2,1737.46,386.57Z"/><path class="cls-5" d="M1430.5,41.49l-113.4,167v38.05h106.63V204.39h-42.26a14.1,14.1,0,1,1,0-3.76h42.26V132.51a14.11,14.11,0,1,1,3.76,0V300.15h53.43v-53.6h31.14V204.09h-31.14V41.49Z"/><path class="cls-5" d="M1470,489.72V512.8a8.76,8.76,0,1,1-3.52-.1V486.2h30.11V472.71H1427.5v73.72a8.6,8.6,0,0,1,7,8.41,8.75,8.75,0,0,1-17.5,0,8.61,8.61,0,0,1,6.94-8.41V366.33l3.52.58V469.19h72.65v20.53Z"/><path class="cls-5" d="M1343.9,349.21v63.36H1240.65a8.8,8.8,0,1,1,0-3.52h99.83V348.33C1341.55,348.63,1342.73,348.92,1343.9,349.21Z"/><path class="cls-5" d="M1599.2,410.81a8.83,8.83,0,0,1-8.8,8.8,8.68,8.68,0,0,1-8.41-7H1479.72V374.93c1.17.19,2.24.39,3.42.49v33.63H1582a8.69,8.69,0,0,1,8.41-7A8.89,8.89,0,0,1,1599.2,410.81Z"/><path class="cls-5" d="M1566.74,466a8.8,8.8,0,1,1-17.6,0,8.6,8.6,0,0,1,7-8.41v-25H1462.7v-60c1.18.19,2.25.39,3.42.48v56h93.58v28.55A8.69,8.69,0,0,1,1566.74,466Z"/><path class="cls-5" d="M1532.71,485.81a8.8,8.8,0,1,1-10.56-8.41V450.32h-75.68V370.14c1.17.1,2.25.29,3.42.49V446.8h75.78v30.6A8.6,8.6,0,0,1,1532.71,485.81Z"/><path class="cls-5" d="M1406.67,554.84a8.8,8.8,0,0,1-17.6,0,8.61,8.61,0,0,1,7-8.41V472.71H1327V486.2h30.12v26.5a8.7,8.7,0,0,1,7.24,8.51,8.76,8.76,0,1,1-10.76-8.41V489.72h-30.12V469.19h72.65V361c1.18.2,2.35.49,3.52.69v184.7A8.69,8.69,0,0,1,1406.67,554.84Z"/><path class="cls-5" d="M1301.46,450.32v23.85a8.61,8.61,0,0,1,7,8.41,8.8,8.8,0,0,1-17.6,0,8.61,8.61,0,0,1,7-8.41V446.8h75.78V356.35c1.18.2,2.25.49,3.43.78v93.19Z"/><path class="cls-5" d="M1267.44,432.52v20.24a8.6,8.6,0,0,1,7,8.41,8.8,8.8,0,1,1-10.56-8.41V429h93.57V352.64c1.18.19,2.25.48,3.42.78v79.1Z"/><text class="cls-6" transform="translate(1352.76 706.47)">4INDATA</text></g></g></svg>